{
  "scenes" : [ { "extras" : { "background-shader": "simple_sky" }, "nodes" : [ 0, 1, 2, 3, 4, 5, 6 ] } ],
  "nodes" : [
    {
      "camera": 0,
      "name" : "Camera",
      "rotation" : [ 0, -0.7071068286895752, 0, 0.7071068286895752 ]
    },
    { "mesh" : 0, "translation" : [0,0,0] },
    { "mesh" : 1, "translation" : [-2,0,0] },
    { "mesh" : 2, "translation" : [2,0,0] },
    { "mesh" : 3, "translation" : [0,2,0] },
    { "mesh" : 4, "translation" : [0,-2,0] },
    { "mesh" : 5, "translation" : [0,0,2] },
    { "mesh" : 6, "translation" : [0,0,-2] }
  ],
  "cameras" : [
    {
      "name" : "Camera",
      "type" : "perspective",
      "perspective" : {
        "aspectRatio" : 1.7777777777777777,
        "yfov" : 0.39959652046304894,
        "zfar" : 1000,
        "znear" : 0.10000000149011612
      },
      "extras" : {
        "compound-eye" : "true",
        "compound-projection" : "spherical_orientationwise",
        "compound-structure" : "eyes/poly.eye"
      }
    }
  ],
  "meshes" : [
    { "primitives" : [ { "attributes" : { "POSITION" : 1, "COLOR_0" : 2, "NORMAL" : 3 }, "indices" : 0, "material": 0 } ] },
    { "primitives" : [ { "attributes" : { "POSITION" : 5, "COLOR_0" : 6, "NORMAL" : 7 }, "indices" : 4, "material": 0 } ] },
    { "primitives" : [ { "attributes" : { "POSITION" : 9, "COLOR_0" : 10, "NORMAL" : 11 }, "indices" : 8, "material": 0 } ] },
    { "primitives" : [ { "attributes" : { "POSITION" : 13, "COLOR_0" : 14, "NORMAL" : 15 }, "indices" : 12, "material": 0 } ] },
    { "primitives" : [ { "attributes" : { "POSITION" : 17, "COLOR_0" : 18, "NORMAL" : 19 }, "indices" : 16, "material": 0 } ] },
    { "primitives" : [ { "attributes" : { "POSITION" : 21, "COLOR_0" : 22, "NORMAL" : 23 }, "indices" : 20, "material": 0 } ] },
    { "primitives" : [ { "attributes" : { "POSITION" : 25, "COLOR_0" : 26, "NORMAL" : 27 }, "indices" : 24, "material": 0 } ] }
  ],
  "buffers" : [
    {"uri" : "data:application/octet-stream;base64,", "byteLength" : 144},
    {"uri" : "data:application/octet-stream;base64,", "byteLength" : 288},
    {"uri" : "data:application/octet-stream;base64,", "byteLength" : 288},
    {"uri" : "data:application/octet-stream;base64,", "byteLength" : 288},
    {"uri" : "data:application/octet-stream;base64,", "byteLength" : 144},
    {"uri" : "data:application/octet-stream;base64,", "byteLength" : 288},
    {"uri" : "data:application/octet-stream;base64,", "byteLength" : 288},
    {"uri" : "data:application/octet-stream;base64,", "byteLength" : 288},
    {"uri" : "data:application/octet-stream;base64,", "byteLength" : 144},
    {"uri" : "data:application/octet-stream;base64,", "byteLength" : 288},
    {"uri" : "data:application/octet-stream;base64,", "byteLength" : 288},
    {"uri" : "data:application/octet-stream;base64,", "byteLength" : 288},
    {"uri" : "data:application/octet-stream;base64,", "byteLength" : 144},
    {"uri" : "data:application/octet-stream;base64,", "byteLength" : 288},
    {"uri" : "data:application/octet-stream;base64,", "byteLength" : 288},
    {"uri" : "data:application/octet-stream;base64,", "byteLength" : 288},
    {"uri" : "data:application/octet-stream;base64,", "byteLength" : 144},
    {"uri" : "data:application/octet-stream;base64,", "byteLength" : 288},
    {"uri" : "data:application/octet-stream;base64,", "byteLength" : 288},
    {"uri" : "data:application/octet-stream;base64,", "byteLength" : 288},
    {"uri" : "data:application/octet-stream;base64,", "byteLength" : 144},
    {"uri" : "data:application/octet-stream;base64,", "byteLength" : 288},
    {"uri" : "data:application/octet-stream;base64,", "byteLength" : 288},
    {"uri" : "data:application/octet-stream;base64,", "byteLength" : 288},
    {"uri" : "data:application/octet-stream;base64,", "byteLength" : 144},
    {"uri" : "data:application/octet-stream;base64,", "byteLength" : 288},
    {"uri" : "data:application/octet-stream;base64,", "byteLength" : 288},
    {"uri" : "data:application/octet-stream;base64,", "byteLength" : 288}
  ],
  "bufferViews" : [
    { "buffer" : 0, "byteOffset" : 0, "byteLength" : 144, "target" : 34963  },
    { "buffer" : 1, "byteOffset" : 0, "byteLength" : 288, "target" : 34962  },
    { "buffer" : 2, "byteOffset" : 0, "byteLength" : 288, "target" : 34962  },
    { "buffer" : 3, "byteOffset" : 0, "byteLength" : 288, "target" : 34962  },
    { "buffer" : 4, "byteOffset" : 0, "byteLength" : 144, "target" : 34963  },
    { "buffer" : 5, "byteOffset" : 0, "byteLength" : 288, "target" : 34962  },
    { "buffer" : 6, "byteOffset" : 0, "byteLength" : 288, "target" : 34962  },
    { "buffer" : 7, "byteOffset" : 0, "byteLength" : 288, "target" : 34962  },
    { "buffer" : 8, "byteOffset" : 0, "byteLength" : 144, "target" : 34963  },
    { "buffer" : 9, "byteOffset" : 0, "byteLength" : 288, "target" : 34962  },
    { "buffer" : 10, "byteOffset" : 0, "byteLength" : 288, "target" : 34962  },
    { "buffer" : 11, "byteOffset" : 0, "byteLength" : 288, "target" : 34962  },
    { "buffer" : 12, "byteOffset" : 0, "byteLength" : 144, "target" : 34963  },
    { "buffer" : 13, "byteOffset" : 0, "byteLength" : 288, "target" : 34962  },
    { "buffer" : 14, "byteOffset" : 0, "byteLength" : 288, "target" : 34962  },
    { "buffer" : 15, "byteOffset" : 0, "byteLength" : 288, "target" : 34962  },
    { "buffer" : 16, "byteOffset" : 0, "byteLength" : 144, "target" : 34963  },
    { "buffer" : 17, "byteOffset" : 0, "byteLength" : 288, "target" : 34962  },
    { "buffer" : 18, "byteOffset" : 0, "byteLength" : 288, "target" : 34962  },
    { "buffer" : 19, "byteOffset" : 0, "byteLength" : 288, "target" : 34962  },
    { "buffer" : 20, "byteOffset" : 0, "byteLength" : 144, "target" : 34963  },
    { "buffer" : 21, "byteOffset" : 0, "byteLength" : 288, "target" : 34962  },
    { "buffer" : 22, "byteOffset" : 0, "byteLength" : 288, "target" : 34962  },
    { "buffer" : 23, "byteOffset" : 0, "byteLength" : 288, "target" : 34962  },
    { "buffer" : 24, "byteOffset" : 0, "byteLength" : 144, "target" : 34963  },
    { "buffer" : 25, "byteOffset" : 0, "byteLength" : 288, "target" : 34962  },
    { "buffer" : 26, "byteOffset" : 0, "byteLength" : 288, "target" : 34962  },
    { "buffer" : 27, "byteOffset" : 0, "byteLength" : 288, "target" : 34962  }
  ],
  "accessors" : [
    { "bufferView" : 0, "byteOffset" : 0, "componentType" : 5125, "type" : "SCALAR", "count" : 36},
    { "bufferView" : 1, "byteOffset" : 0, "componentType" : 5126, "type" : "VEC3", "count" : 24, "max" : [0.116666675,0.0833333358,0.0833333358], "min" : [0,0,0] },
    { "bufferView" : 2, "byteOffset" : 0, "componentType" : 5126, "type" : "VEC3", "count" : 24},
    { "bufferView" : 3, "byteOffset" : 0, "componentType" : 5126, "type" : "VEC3", "count" : 24},
    { "bufferView" : 4, "byteOffset" : 0, "componentType" : 5125, "type" : "SCALAR", "count" : 36},
    { "bufferView" : 5, "byteOffset" : 0, "componentType" : 5126, "type" : "VEC3", "count" : 24, "max" : [0.349999994,0.25,0.25], "min" : [0,0,0] },
    { "bufferView" : 6, "byteOffset" : 0, "componentType" : 5126, "type" : "VEC3", "count" : 24},
    { "bufferView" : 7, "byteOffset" : 0, "componentType" : 5126, "type" : "VEC3", "count" : 24},
    { "bufferView" : 8, "byteOffset" : 0, "componentType" : 5125, "type" : "SCALAR", "count" : 36},
    { "bufferView" : 9, "byteOffset" : 0, "componentType" : 5126, "type" : "VEC3", "count" : 24, "max" : [0.349999994,0.25,0.25], "min" : [0,0,0] },
    { "bufferView" : 10, "byteOffset" : 0, "componentType" : 5126, "type" : "VEC3", "count" : 24},
    { "bufferView" : 11, "byteOffset" : 0, "componentType" : 5126, "type" : "VEC3", "count" : 24},
    { "bufferView" : 12, "byteOffset" : 0, "componentType" : 5125, "type" : "SCALAR", "count" : 36},
    { "bufferView" : 13, "byteOffset" : 0, "componentType" : 5126, "type" : "VEC3", "count" : 24, "max" : [0.349999994,0.25,0.25], "min" : [0,0,0] },
    { "bufferView" : 14, "byteOffset" : 0, "componentType" : 5126, "type" : "VEC3", "count" : 24},
    { "bufferView" : 15, "byteOffset" : 0, "componentType" : 5126, "type" : "VEC3", "count" : 24},
    { "bufferView" : 16, "byteOffset" : 0, "componentType" : 5125, "type" : "SCALAR", "count" : 36},
    { "bufferView" : 17, "byteOffset" : 0, "componentType" : 5126, "type" : "VEC3", "count" : 24, "max" : [0.349999994,0.25,0.25], "min" : [0,0,0] },
    { "bufferView" : 18, "byteOffset" : 0, "componentType" : 5126, "type" : "VEC3", "count" : 24},
    { "bufferView" : 19, "byteOffset" : 0, "componentType" : 5126, "type" : "VEC3", "count" : 24},
    { "bufferView" : 20, "byteOffset" : 0, "componentType" : 5125, "type" : "SCALAR", "count" : 36},
    { "bufferView" : 21, "byteOffset" : 0, "componentType" : 5126, "type" : "VEC3", "count" : 24, "max" : [0.349999994,0.25,0.25], "min" : [0,0,0] },
    { "bufferView" : 22, "byteOffset" : 0, "componentType" : 5126, "type" : "VEC3", "count" : 24},
    { "bufferView" : 23, "byteOffset" : 0, "componentType" : 5126, "type" : "VEC3", "count" : 24},
    { "bufferView" : 24, "byteOffset" : 0, "componentType" : 5125, "type" : "SCALAR", "count" : 36},
    { "bufferView" : 25, "byteOffset" : 0, "componentType" : 5126, "type" : "VEC3", "count" : 24, "max" : [0.349999994,0.25,0.25], "min" : [0,0,0] },
    { "bufferView" : 26, "byteOffset" : 0, "componentType" : 5126, "type" : "VEC3", "count" : 24},
    { "bufferView" : 27, "byteOffset" : 0, "componentType" : 5126, "type" : "VEC3", "count" : 24}
  ],
  "materials" : [ { "doubleSided" : true } ],
  "asset" : {
    "generator" : "https://github.com/ABRG-Models/mplotologica [version 4.0]: mplot::VisualCompoundRay::savegltf()",
    "version" : "2.0"
  }
}
