{
  "scenes" : [ { "extras" : { "background-shader": "simple_sky" }, "nodes" : [ 0, 1 ] } ],
  "nodes" : [
    {
      "camera": 0,
      "name" : "Camera",
      "rotation" : [ 0, -0.7071068286895752, 0, 0.7071068286895752 ]
    },
    { "mesh" : 0, "translation" : [1,-0.5,-0.5] }
  ],
  "cameras" : [
    {
      "name" : "Camera",
      "type" : "perspective",
      "perspective" : {
        "aspectRatio" : 1.7777777777777777,
        "yfov" : 0.39959652046304894,
        "zfar" : 1000,
        "znear" : 0.10000000149011612
      },
      "extras" : {
        "compound-eye" : "true",
        "compound-projection" : "spherical_orientationwise",
        "compound-structure" : "eyes/foveated_eye.eye"
      }
    }
  ],
  "meshes" : [
    { "name" : "Cube.002", "primitives" : [ { "attributes" : { "POSITION" : 1, "COLOR_0" : 2, "NORMAL" : 3 }, "indices" : 0, "material": 0 } ] }
  ],
  "buffers" : [
    {"uri" : "data:application/octet-stream;base64,", "byteLength" : 144},
    {"uri" : "data:application/octet-stream;base64,", "byteLength" : 432},
    {"uri" : "data:application/octet-stream;base64,", "byteLength" : 432},
    {"uri" : "data:application/octet-stream;base64,", "byteLength" : 432}
  ],
  "bufferViews" : [
    { "buffer" : 0, "byteOffset" : 0, "byteLength" : 144, "target" : 34963  },
    { "buffer" : 1, "byteOffset" : 0, "byteLength" : 432, "target" : 34962  },
    { "buffer" : 2, "byteOffset" : 0, "byteLength" : 432, "target" : 34962  },
    { "buffer" : 3, "byteOffset" : 0, "byteLength" : 432, "target" : 34962  }
  ],
  "accessors" : [
    { "bufferView" : 0, "byteOffset" : 0, "componentType" : 5125, "type" : "SCALAR", "count" : 36},
    { "bufferView" : 1, "byteOffset" : 0, "componentType" : 5126, "type" : "VEC3", "count" : 36, "max" : [1,1,1], "min" : [0,0,0] },
    { "bufferView" : 2, "byteOffset" : 0, "componentType" : 5126, "type" : "VEC3", "count" : 36},
    { "bufferView" : 3, "byteOffset" : 0, "componentType" : 5126, "type" : "VEC3", "count" : 36}
  ],
  "materials" : [ { "doubleSided" : true } ],
  "asset" : {
    "generator" : "https://github.com/sebsjames/mathplot [version 1.0]: mplot::VisualCompoundRay::savegltf()",
    "version" : "2.0"
  }
}
