{
	"asset":{
		"generator":"Khronos glTF Blender I/O v4.5.48",
		"version":"2.0"
	},
	"scene":0,
	"scenes":[
		{
			"extras":{
				"background-shader":"simple_sky"
			},
			"name":"Scene",
			"nodes":[
				0,
				1
			]
		}
	],
	"nodes":[
		{
			"camera":0,
			"name":"Camera",
			"rotation":[
				0,
				-0.7071068286895752,
				0,
				0.7071068286895752
			],
			"translation":[
				0,
				5.073604106903076,
				0
			]
		},
		{
			"extras":{
				"ant_landscape":{
					"ant_terrain_name":"Landscape",
					"at_cursor":1,
					"smooth_mesh":0,
					"tri_face":0,
					"sphere_mesh":0,
					"land_material":"",
					"water_material":"",
					"texture_block":"",
					"subdivision_x":128,
					"subdivision_y":128,
					"mesh_size_x":2.0,
					"mesh_size_y":2.0,
					"mesh_size":2.0,
					"random_seed":13,
					"noise_offset_x":0.0,
					"noise_offset_y":0.0,
					"noise_offset_z":0.0,
					"noise_size_x":1.0,
					"noise_size_y":1.0,
					"noise_size_z":1.0,
					"noise_size":1.0,
					"noise_type":5,
					"basis_type":2,
					"vl_basis_type":0,
					"distortion":1.0,
					"hard_noise":1,
					"noise_depth":7,
					"amplitude":0.47999998927116394,
					"frequency":1.649999976158142,
					"dimension":1.0,
					"lacunarity":2.0,
					"offset":0.8999999761581421,
					"gain":3.0,
					"marble_bias":2,
					"marble_sharp":0,
					"marble_shape":4,
					"height":0.15000002086162567,
					"height_invert":0,
					"height_offset":0.0,
					"maximum":1.0,
					"minimum":-1.0,
					"edge_falloff":0,
					"edge_level":0.0,
					"falloff_x":4.0,
					"falloff_y":4.0,
					"strata_type":0,
					"strata":3.0,
					"water_plane":0,
					"water_level":-0.019999999552965164,
					"vert_group":"",
					"remove_double":1,
					"fx_mixfactor":0.0,
					"fx_mix_mode":0,
					"fx_type":0,
					"fx_bias":0,
					"fx_turb":0.0,
					"fx_depth":0,
					"fx_frequency":2.0,
					"fx_amplitude":0.5,
					"fx_size":1.0,
					"fx_loc_x":0.0,
					"fx_loc_y":0.0,
					"fx_height":0.5,
					"fx_offset":0.0,
					"fx_invert":0
				}
			},
			"mesh":0,
			"name":"Landscape.003",
			"scale":[
				100,
				100,
				100
			],
			"translation":[
				0,
				4.360199928283691,
				0
			]
		}
	],
	"cameras":[
		{
			"extras":{
				"compound-eye":"true",
				"compound-projection":"spherical_orientationwise",
				"compound-structure":"data/eyes/ant_eyes_dhex.eye"
			},
			"name":"Camera.001",
			"perspective":{
				"aspectRatio":1.7777777777777777,
				"yfov":0.39959651231765747,
				"zfar":100,
				"znear":0.10000000149011612
			},
			"type":"perspective"
		}
	],
	"materials":[
		{
			"doubleSided":true,
			"name":"DefaultMaterial.019",
			"pbrMetallicRoughness":{
				"metallicFactor":0,
				"roughnessFactor":0.5
			}
		}
	],
	"meshes":[
		{
			"name":"Landscape.003",
			"primitives":[
				{
					"attributes":{
						"POSITION":0,
						"NORMAL":1,
						"COLOR_0":2
					},
					"indices":3,
					"material":0
				}
			]
		}
	],
	"accessors":[
		{
			"bufferView":0,
			"componentType":5126,
			"count":65058,
			"max":[
				1,
				0.06895095109939575,
				1
			],
			"min":[
				-1,
				-0.05991949513554573,
				-1.0001002550125122
			],
			"type":"VEC3"
		},
		{
			"bufferView":1,
			"componentType":5126,
			"count":65058,
			"type":"VEC3"
		},
		{
			"bufferView":2,
			"componentType":5126,
			"count":65058,
			"type":"VEC3"
		},
		{
			"bufferView":3,
			"componentType":5123,
			"count":96774,
			"type":"SCALAR"
		}
	],
	"bufferViews":[
		{
			"buffer":0,
			"byteLength":780696,
			"byteOffset":0,
			"target":34962
		},
		{
			"buffer":0,
			"byteLength":780696,
			"byteOffset":780696,
			"target":34962
		},
		{
			"buffer":0,
			"byteLength":780696,
			"byteOffset":1561392,
			"target":34962
		},
		{
			"buffer":0,
			"byteLength":193548,
			"byteOffset":2342088,
			"target":34963
		}
	],
	"buffers":[
		{
			"byteLength":2535636,
			"uri":"data:application/octet-stream;base64,"
		}
	]
}
